%TF.GenerationSoftware,KiCad,Pcbnew,10.0.5*%
%TF.CreationDate,2026-09-09T16:14:35+08:00*%
%TF.ProjectId,ZYNQ-SoM,5a594e51-2d53-46f4-9d2e-6b696361645f,rev?*%
%TF.SameCoordinates,Original*%
%TF.FileFunction,Soldermask,Bot*%
%TF.FilePolarity,Negative*%
%FSLAX46Y46*%
G04 Gerber Fmt 4.6, Leading zero omitted, Abs format (unit mm)*
G04 Created by KiCad (PCBNEW 10.0.5) date 2026-09-09 16:14:35*
%MOMM*%
%LPD*%
G01*
G04 APERTURE LIST*
G04 Aperture macros list*
%AMRoundRect*
0 Rectangle with rounded corners*
0 $1 Rounding radius*
0 $2 $3 $4 $5 $6 $7 $8 $9 X,Y pos of 4 corners*
0 Add a 4 corners polygon primitive as box body*
4,1,4,$2,$3,$4,$5,$6,$7,$8,$9,$2,$3,0*
0 Add four circle primitives for the rounded corners*
1,1,$1+$1,$2,$3*
1,1,$1+$1,$4,$5*
1,1,$1+$1,$6,$7*
1,1,$1+$1,$8,$9*
0 Add four rect primitives between the rounded corners*
20,1,$1+$1,$2,$3,$4,$5,0*
20,1,$1+$1,$4,$5,$6,$7,0*
20,1,$1+$1,$6,$7,$8,$9,0*
20,1,$1+$1,$8,$9,$2,$3,0*%
G04 Aperture macros list end*
%ADD10C,4.400000*%
%ADD11RoundRect,0.225000X-0.250000X0.225000X-0.250000X-0.225000X0.250000X-0.225000X0.250000X0.225000X0*%
%ADD12RoundRect,0.135000X0.185000X-0.135000X0.185000X0.135000X-0.185000X0.135000X-0.185000X-0.135000X0*%
%ADD13RoundRect,0.135000X0.135000X0.185000X-0.135000X0.185000X-0.135000X-0.185000X0.135000X-0.185000X0*%
%ADD14RoundRect,0.140000X-0.170000X0.140000X-0.170000X-0.140000X0.170000X-0.140000X0.170000X0.140000X0*%
%ADD15RoundRect,0.140000X-0.140000X-0.170000X0.140000X-0.170000X0.140000X0.170000X-0.140000X0.170000X0*%
%ADD16RoundRect,0.140000X0.140000X0.170000X-0.140000X0.170000X-0.140000X-0.170000X0.140000X-0.170000X0*%
%ADD17RoundRect,0.225000X0.250000X-0.225000X0.250000X0.225000X-0.250000X0.225000X-0.250000X-0.225000X0*%
%ADD18RoundRect,0.135000X-0.135000X-0.185000X0.135000X-0.185000X0.135000X0.185000X-0.135000X0.185000X0*%
%ADD19RoundRect,0.225000X0.225000X0.250000X-0.225000X0.250000X-0.225000X-0.250000X0.225000X-0.250000X0*%
%ADD20RoundRect,0.135000X-0.185000X0.135000X-0.185000X-0.135000X0.185000X-0.135000X0.185000X0.135000X0*%
%ADD21R,0.750000X1.800000*%
%ADD22R,0.250000X1.800000*%
%ADD23RoundRect,0.147500X0.172500X-0.147500X0.172500X0.147500X-0.172500X0.147500X-0.172500X-0.147500X0*%
%ADD24RoundRect,0.140000X0.170000X-0.140000X0.170000X0.140000X-0.170000X0.140000X-0.170000X-0.140000X0*%
%ADD25RoundRect,0.250000X-0.250000X-0.475000X0.250000X-0.475000X0.250000X0.475000X-0.250000X0.475000X0*%
G04 APERTURE END LIST*
D10*
%TO.C,H104*%
X147000000Y-97000000D03*
%TD*%
%TO.C,H103*%
X103000001Y-96999999D03*
%TD*%
%TO.C,H102*%
X146999999Y-63000001D03*
%TD*%
%TO.C,H101*%
X103000000Y-63000000D03*
%TD*%
D11*
%TO.C,C550*%
X124000000Y-85225000D03*
X124000000Y-86775000D03*
%TD*%
D12*
%TO.C,R302*%
X102700000Y-73210000D03*
X102700000Y-72190000D03*
%TD*%
D13*
%TO.C,R705*%
X133310000Y-71600000D03*
X132290000Y-71600000D03*
%TD*%
D14*
%TO.C,C311*%
X128500000Y-82420000D03*
X128500000Y-83380000D03*
%TD*%
D15*
%TO.C,C702*%
X129620000Y-75500000D03*
X130580000Y-75500000D03*
%TD*%
D16*
%TO.C,C308*%
X106960000Y-70100000D03*
X106000000Y-70100000D03*
%TD*%
D15*
%TO.C,C574*%
X132020000Y-83200000D03*
X132980000Y-83200000D03*
%TD*%
D17*
%TO.C,C546*%
X129200000Y-72475000D03*
X129200000Y-70925000D03*
%TD*%
D14*
%TO.C,C306*%
X102700000Y-79820000D03*
X102700000Y-80780000D03*
%TD*%
D18*
%TO.C,R201*%
X132290000Y-84100000D03*
X133310000Y-84100000D03*
%TD*%
D16*
%TO.C,C555*%
X139580000Y-74800000D03*
X138620000Y-74800000D03*
%TD*%
%TO.C,C201*%
X132680000Y-80000000D03*
X131720000Y-80000000D03*
%TD*%
D15*
%TO.C,C313*%
X128820000Y-78100000D03*
X129780000Y-78100000D03*
%TD*%
D16*
%TO.C,C532*%
X132880000Y-76800000D03*
X131920000Y-76800000D03*
%TD*%
%TO.C,C526*%
X132980000Y-82400000D03*
X132020000Y-82400000D03*
%TD*%
D15*
%TO.C,C554*%
X136020000Y-83200000D03*
X136980000Y-83200000D03*
%TD*%
D14*
%TO.C,C304*%
X102700000Y-70320000D03*
X102700000Y-71280000D03*
%TD*%
D16*
%TO.C,C564*%
X139780000Y-81500000D03*
X138820000Y-81500000D03*
%TD*%
%TO.C,C556*%
X126580000Y-72400000D03*
X125620000Y-72400000D03*
%TD*%
%TO.C,C569*%
X134580000Y-78700000D03*
X133620000Y-78700000D03*
%TD*%
D13*
%TO.C,R211*%
X132410000Y-75000000D03*
X131390000Y-75000000D03*
%TD*%
D16*
%TO.C,C559*%
X136980000Y-79600000D03*
X136020000Y-79600000D03*
%TD*%
D15*
%TO.C,C547*%
X134420000Y-81600000D03*
X135380000Y-81600000D03*
%TD*%
D13*
%TO.C,R203*%
X129910000Y-80800000D03*
X128890000Y-80800000D03*
%TD*%
D19*
%TO.C,C524*%
X146275000Y-82500000D03*
X144725000Y-82500000D03*
%TD*%
D20*
%TO.C,R703*%
X136100000Y-72290000D03*
X136100000Y-73310000D03*
%TD*%
D12*
%TO.C,R306*%
X123400000Y-78410000D03*
X123400000Y-77390000D03*
%TD*%
D20*
%TO.C,R701*%
X128100000Y-71390000D03*
X128100000Y-72410000D03*
%TD*%
D14*
%TO.C,C551*%
X134500000Y-72420000D03*
X134500000Y-73380000D03*
%TD*%
D21*
%TO.C,J402*%
X115000000Y-68000000D03*
X115000000Y-63000000D03*
D22*
X115750000Y-68000000D03*
X115750000Y-63000000D03*
X116250000Y-68000000D03*
X116250000Y-63000000D03*
X116750000Y-68000000D03*
X116750000Y-63000000D03*
X117250000Y-68000000D03*
X117250000Y-63000000D03*
X117750000Y-68000000D03*
X117750000Y-63000000D03*
X118250000Y-68000000D03*
X118250000Y-63000000D03*
X118750000Y-68000000D03*
X118750000Y-63000000D03*
X119250000Y-68000000D03*
X119250000Y-63000000D03*
X119750000Y-68000000D03*
X119750000Y-63000000D03*
X120250000Y-68000000D03*
X120250000Y-63000000D03*
X120750000Y-68000000D03*
X120750000Y-63000000D03*
X121250000Y-68000000D03*
X121250000Y-63000000D03*
X121750000Y-68000000D03*
X121750000Y-63000000D03*
X122250000Y-68000000D03*
X122250000Y-63000000D03*
X122750000Y-68000000D03*
X122750000Y-63000000D03*
X123250000Y-68000000D03*
X123250000Y-63000000D03*
X123750000Y-68000000D03*
X123750000Y-63000000D03*
X124250000Y-68000000D03*
X124250000Y-63000000D03*
X124750000Y-68000000D03*
X124750000Y-63000000D03*
X125250000Y-68000000D03*
X125250000Y-63000000D03*
X125750000Y-68000000D03*
X125750000Y-63000000D03*
X126250000Y-68000000D03*
X126250000Y-63000000D03*
X126750000Y-68000000D03*
X126750000Y-63000000D03*
X127250000Y-68000000D03*
X127250000Y-63000000D03*
X127750000Y-68000000D03*
X127750000Y-63000000D03*
X128250000Y-68000000D03*
X128250000Y-63000000D03*
X128750000Y-68000000D03*
X128750000Y-63000000D03*
X129250000Y-68000000D03*
X129250000Y-63000000D03*
X129750000Y-68000000D03*
X129750000Y-63000000D03*
X130250000Y-68000000D03*
X130250000Y-63000000D03*
X130750000Y-68000000D03*
X130750000Y-63000000D03*
X131250000Y-68000000D03*
X131250000Y-63000000D03*
X131750000Y-68000000D03*
X131750000Y-63000000D03*
X132250000Y-68000000D03*
X132250000Y-63000000D03*
X132750000Y-68000000D03*
X132750000Y-63000000D03*
X133250000Y-68000000D03*
X133250000Y-63000000D03*
X133750000Y-68000000D03*
X133750000Y-63000000D03*
X134250000Y-68000000D03*
X134250000Y-63000000D03*
D21*
X135000000Y-68000000D03*
X135000000Y-63000000D03*
%TD*%
D15*
%TO.C,C565*%
X135620000Y-77600000D03*
X136580000Y-77600000D03*
%TD*%
D19*
%TO.C,C527*%
X142575000Y-79200000D03*
X141025000Y-79200000D03*
%TD*%
D18*
%TO.C,R202*%
X129990000Y-84900000D03*
X131010000Y-84900000D03*
%TD*%
%TO.C,R706*%
X130390000Y-71600000D03*
X131410000Y-71600000D03*
%TD*%
D20*
%TO.C,R309*%
X125600000Y-83590000D03*
X125600000Y-84610000D03*
%TD*%
D21*
%TO.C,J403*%
X115000000Y-97000000D03*
X115000000Y-92000000D03*
D22*
X115750000Y-97000000D03*
X115750000Y-92000000D03*
X116250000Y-97000000D03*
X116250000Y-92000000D03*
X116750000Y-97000000D03*
X116750000Y-92000000D03*
X117250000Y-97000000D03*
X117250000Y-92000000D03*
X117750000Y-97000000D03*
X117750000Y-92000000D03*
X118250000Y-97000000D03*
X118250000Y-92000000D03*
X118750000Y-97000000D03*
X118750000Y-92000000D03*
X119250000Y-97000000D03*
X119250000Y-92000000D03*
X119750000Y-97000000D03*
X119750000Y-92000000D03*
X120250000Y-97000000D03*
X120250000Y-92000000D03*
X120750000Y-97000000D03*
X120750000Y-92000000D03*
X121250000Y-97000000D03*
X121250000Y-92000000D03*
X121750000Y-97000000D03*
X121750000Y-92000000D03*
X122250000Y-97000000D03*
X122250000Y-92000000D03*
X122750000Y-97000000D03*
X122750000Y-92000000D03*
X123250000Y-97000000D03*
X123250000Y-92000000D03*
X123750000Y-97000000D03*
X123750000Y-92000000D03*
X124250000Y-97000000D03*
X124250000Y-92000000D03*
X124750000Y-97000000D03*
X124750000Y-92000000D03*
X125250000Y-97000000D03*
X125250000Y-92000000D03*
X125750000Y-97000000D03*
X125750000Y-92000000D03*
X126250000Y-97000000D03*
X126250000Y-92000000D03*
X126750000Y-97000000D03*
X126750000Y-92000000D03*
X127250000Y-97000000D03*
X127250000Y-92000000D03*
X127750000Y-97000000D03*
X127750000Y-92000000D03*
X128250000Y-97000000D03*
X128250000Y-92000000D03*
X128750000Y-97000000D03*
X128750000Y-92000000D03*
X129250000Y-97000000D03*
X129250000Y-92000000D03*
X129750000Y-97000000D03*
X129750000Y-92000000D03*
X130250000Y-97000000D03*
X130250000Y-92000000D03*
X130750000Y-97000000D03*
X130750000Y-92000000D03*
X131250000Y-97000000D03*
X131250000Y-92000000D03*
X131750000Y-97000000D03*
X131750000Y-92000000D03*
X132250000Y-97000000D03*
X132250000Y-92000000D03*
X132750000Y-97000000D03*
X132750000Y-92000000D03*
X133250000Y-97000000D03*
X133250000Y-92000000D03*
X133750000Y-97000000D03*
X133750000Y-92000000D03*
X134250000Y-97000000D03*
X134250000Y-92000000D03*
D21*
X135000000Y-97000000D03*
X135000000Y-92000000D03*
%TD*%
D19*
%TO.C,C522*%
X146275000Y-81250000D03*
X144725000Y-81250000D03*
%TD*%
D16*
%TO.C,C563*%
X130580000Y-82900000D03*
X129620000Y-82900000D03*
%TD*%
D23*
%TO.C,FB201*%
X132500000Y-79285000D03*
X132500000Y-78315000D03*
%TD*%
D15*
%TO.C,C539*%
X133620000Y-77900000D03*
X134580000Y-77900000D03*
%TD*%
%TO.C,C312*%
X109800000Y-70100000D03*
X110760000Y-70100000D03*
%TD*%
%TO.C,C314*%
X107900000Y-70100000D03*
X108860000Y-70100000D03*
%TD*%
D24*
%TO.C,C558*%
X135150000Y-85980000D03*
X135150000Y-85020000D03*
%TD*%
D15*
%TO.C,C530*%
X129620000Y-83700000D03*
X130580000Y-83700000D03*
%TD*%
%TO.C,C704*%
X133220000Y-75200000D03*
X134180000Y-75200000D03*
%TD*%
%TO.C,C570*%
X138220000Y-86400000D03*
X139180000Y-86400000D03*
%TD*%
D19*
%TO.C,C525*%
X142575000Y-78000000D03*
X141025000Y-78000000D03*
%TD*%
D15*
%TO.C,C302*%
X108120000Y-80900000D03*
X109080000Y-80900000D03*
%TD*%
D25*
%TO.C,C523*%
X145350000Y-75300000D03*
X147250000Y-75300000D03*
%TD*%
%TO.C,C521*%
X145350000Y-77500000D03*
X147250000Y-77500000D03*
%TD*%
D16*
%TO.C,C202*%
X128980000Y-79600000D03*
X128020000Y-79600000D03*
%TD*%
D17*
%TO.C,C548*%
X140200000Y-86375000D03*
X140200000Y-84825000D03*
%TD*%
D15*
%TO.C,C301*%
X106320000Y-80900000D03*
X107280000Y-80900000D03*
%TD*%
D14*
%TO.C,C305*%
X102700000Y-77920000D03*
X102700000Y-78880000D03*
%TD*%
D15*
%TO.C,C508*%
X130520000Y-78100000D03*
X131480000Y-78100000D03*
%TD*%
D24*
%TO.C,C538*%
X129700000Y-77280000D03*
X129700000Y-76320000D03*
%TD*%
D15*
%TO.C,C536*%
X133520000Y-80000000D03*
X134480000Y-80000000D03*
%TD*%
D18*
%TO.C,R308*%
X125590000Y-82800000D03*
X126610000Y-82800000D03*
%TD*%
D19*
%TO.C,C533*%
X143675000Y-75400000D03*
X142125000Y-75400000D03*
%TD*%
D14*
%TO.C,C542*%
X134100000Y-83220000D03*
X134100000Y-84180000D03*
%TD*%
D16*
%TO.C,C552*%
X134980000Y-80800000D03*
X134020000Y-80800000D03*
%TD*%
%TO.C,C528*%
X133080000Y-80800000D03*
X132120000Y-80800000D03*
%TD*%
D15*
%TO.C,C571*%
X139520000Y-76800000D03*
X140480000Y-76800000D03*
%TD*%
D14*
%TO.C,C310*%
X102700000Y-76020000D03*
X102700000Y-76980000D03*
%TD*%
D16*
%TO.C,C560*%
X128180000Y-84700000D03*
X127220000Y-84700000D03*
%TD*%
%TO.C,C568*%
X132880000Y-76000000D03*
X131920000Y-76000000D03*
%TD*%
D20*
%TO.C,R305*%
X124300000Y-77390000D03*
X124300000Y-78410000D03*
%TD*%
D15*
%TO.C,C566*%
X127220000Y-86600000D03*
X128180000Y-86600000D03*
%TD*%
D19*
%TO.C,C562*%
X146275000Y-80000000D03*
X144725000Y-80000000D03*
%TD*%
D11*
%TO.C,C507*%
X122100000Y-77125000D03*
X122100000Y-78675000D03*
%TD*%
D13*
%TO.C,R704*%
X135110000Y-71600000D03*
X134090000Y-71600000D03*
%TD*%
D17*
%TO.C,C549*%
X140700000Y-74775000D03*
X140700000Y-73225000D03*
%TD*%
D18*
%TO.C,R207*%
X125590000Y-73200000D03*
X126610000Y-73200000D03*
%TD*%
D14*
%TO.C,C309*%
X102700000Y-74100000D03*
X102700000Y-75060000D03*
%TD*%
D19*
%TO.C,C553*%
X143675000Y-74000000D03*
X142125000Y-74000000D03*
%TD*%
D24*
%TO.C,C572*%
X126400000Y-86080000D03*
X126400000Y-85120000D03*
%TD*%
D15*
%TO.C,C575*%
X130020000Y-80000000D03*
X130980000Y-80000000D03*
%TD*%
%TO.C,C573*%
X128920000Y-81600000D03*
X129880000Y-81600000D03*
%TD*%
D12*
%TO.C,R304*%
X123400000Y-81710000D03*
X123400000Y-80690000D03*
%TD*%
D23*
%TO.C,FB501*%
X130500000Y-77285000D03*
X130500000Y-76315000D03*
%TD*%
D16*
%TO.C,C303*%
X105060000Y-70100000D03*
X104100000Y-70100000D03*
%TD*%
M02*
