%TF.GenerationSoftware,KiCad,Pcbnew,10.0.5*%
%TF.CreationDate,2026-09-09T16:14:35+08:00*%
%TF.ProjectId,ZYNQ-SoM,5a594e51-2d53-46f4-9d2e-6b696361645f,rev?*%
%TF.SameCoordinates,Original*%
%TF.FileFunction,Legend,Bot*%
%TF.FilePolarity,Positive*%
%FSLAX46Y46*%
G04 Gerber Fmt 4.6, Leading zero omitted, Abs format (unit mm)*
G04 Created by KiCad (PCBNEW 10.0.5) date 2026-09-09 16:14:35*
%MOMM*%
%LPD*%
G01*
G04 APERTURE LIST*
%ADD10C,0.200000*%
%ADD11C,0.120000*%
%ADD12C,0.100000*%
G04 APERTURE END LIST*
D10*
X112975564Y-86647331D02*
X112308898Y-86647331D01*
X112308898Y-86647331D02*
X112975564Y-87647331D01*
X112975564Y-87647331D02*
X112308898Y-87647331D01*
X111737469Y-87171140D02*
X111737469Y-87647331D01*
X112070802Y-86647331D02*
X111737469Y-87171140D01*
X111737469Y-87171140D02*
X111404136Y-86647331D01*
X111070802Y-87647331D02*
X111070802Y-86647331D01*
X111070802Y-86647331D02*
X110499374Y-87647331D01*
X110499374Y-87647331D02*
X110499374Y-86647331D01*
X109356517Y-87742569D02*
X109451755Y-87694950D01*
X109451755Y-87694950D02*
X109546993Y-87599712D01*
X109546993Y-87599712D02*
X109689850Y-87456854D01*
X109689850Y-87456854D02*
X109785088Y-87409235D01*
X109785088Y-87409235D02*
X109880326Y-87409235D01*
X109832707Y-87647331D02*
X109927945Y-87599712D01*
X109927945Y-87599712D02*
X110023183Y-87504473D01*
X110023183Y-87504473D02*
X110070802Y-87313997D01*
X110070802Y-87313997D02*
X110070802Y-86980664D01*
X110070802Y-86980664D02*
X110023183Y-86790188D01*
X110023183Y-86790188D02*
X109927945Y-86694950D01*
X109927945Y-86694950D02*
X109832707Y-86647331D01*
X109832707Y-86647331D02*
X109642231Y-86647331D01*
X109642231Y-86647331D02*
X109546993Y-86694950D01*
X109546993Y-86694950D02*
X109451755Y-86790188D01*
X109451755Y-86790188D02*
X109404136Y-86980664D01*
X109404136Y-86980664D02*
X109404136Y-87313997D01*
X109404136Y-87313997D02*
X109451755Y-87504473D01*
X109451755Y-87504473D02*
X109546993Y-87599712D01*
X109546993Y-87599712D02*
X109642231Y-87647331D01*
X109642231Y-87647331D02*
X109832707Y-87647331D01*
X108975564Y-87266378D02*
X108213660Y-87266378D01*
X107785088Y-87599712D02*
X107642231Y-87647331D01*
X107642231Y-87647331D02*
X107404136Y-87647331D01*
X107404136Y-87647331D02*
X107308898Y-87599712D01*
X107308898Y-87599712D02*
X107261279Y-87552092D01*
X107261279Y-87552092D02*
X107213660Y-87456854D01*
X107213660Y-87456854D02*
X107213660Y-87361616D01*
X107213660Y-87361616D02*
X107261279Y-87266378D01*
X107261279Y-87266378D02*
X107308898Y-87218759D01*
X107308898Y-87218759D02*
X107404136Y-87171140D01*
X107404136Y-87171140D02*
X107594612Y-87123521D01*
X107594612Y-87123521D02*
X107689850Y-87075902D01*
X107689850Y-87075902D02*
X107737469Y-87028283D01*
X107737469Y-87028283D02*
X107785088Y-86933045D01*
X107785088Y-86933045D02*
X107785088Y-86837807D01*
X107785088Y-86837807D02*
X107737469Y-86742569D01*
X107737469Y-86742569D02*
X107689850Y-86694950D01*
X107689850Y-86694950D02*
X107594612Y-86647331D01*
X107594612Y-86647331D02*
X107356517Y-86647331D01*
X107356517Y-86647331D02*
X107213660Y-86694950D01*
X106642231Y-87647331D02*
X106737469Y-87599712D01*
X106737469Y-87599712D02*
X106785088Y-87552092D01*
X106785088Y-87552092D02*
X106832707Y-87456854D01*
X106832707Y-87456854D02*
X106832707Y-87171140D01*
X106832707Y-87171140D02*
X106785088Y-87075902D01*
X106785088Y-87075902D02*
X106737469Y-87028283D01*
X106737469Y-87028283D02*
X106642231Y-86980664D01*
X106642231Y-86980664D02*
X106499374Y-86980664D01*
X106499374Y-86980664D02*
X106404136Y-87028283D01*
X106404136Y-87028283D02*
X106356517Y-87075902D01*
X106356517Y-87075902D02*
X106308898Y-87171140D01*
X106308898Y-87171140D02*
X106308898Y-87456854D01*
X106308898Y-87456854D02*
X106356517Y-87552092D01*
X106356517Y-87552092D02*
X106404136Y-87599712D01*
X106404136Y-87599712D02*
X106499374Y-87647331D01*
X106499374Y-87647331D02*
X106642231Y-87647331D01*
X105880326Y-87647331D02*
X105880326Y-86647331D01*
X105880326Y-86647331D02*
X105546993Y-87361616D01*
X105546993Y-87361616D02*
X105213660Y-86647331D01*
X105213660Y-86647331D02*
X105213660Y-87647331D01*
X112880326Y-89257275D02*
X112880326Y-88257275D01*
X112880326Y-88257275D02*
X112499374Y-88257275D01*
X112499374Y-88257275D02*
X112404136Y-88304894D01*
X112404136Y-88304894D02*
X112356517Y-88352513D01*
X112356517Y-88352513D02*
X112308898Y-88447751D01*
X112308898Y-88447751D02*
X112308898Y-88590608D01*
X112308898Y-88590608D02*
X112356517Y-88685846D01*
X112356517Y-88685846D02*
X112404136Y-88733465D01*
X112404136Y-88733465D02*
X112499374Y-88781084D01*
X112499374Y-88781084D02*
X112880326Y-88781084D01*
X111308898Y-89162036D02*
X111356517Y-89209656D01*
X111356517Y-89209656D02*
X111499374Y-89257275D01*
X111499374Y-89257275D02*
X111594612Y-89257275D01*
X111594612Y-89257275D02*
X111737469Y-89209656D01*
X111737469Y-89209656D02*
X111832707Y-89114417D01*
X111832707Y-89114417D02*
X111880326Y-89019179D01*
X111880326Y-89019179D02*
X111927945Y-88828703D01*
X111927945Y-88828703D02*
X111927945Y-88685846D01*
X111927945Y-88685846D02*
X111880326Y-88495370D01*
X111880326Y-88495370D02*
X111832707Y-88400132D01*
X111832707Y-88400132D02*
X111737469Y-88304894D01*
X111737469Y-88304894D02*
X111594612Y-88257275D01*
X111594612Y-88257275D02*
X111499374Y-88257275D01*
X111499374Y-88257275D02*
X111356517Y-88304894D01*
X111356517Y-88304894D02*
X111308898Y-88352513D01*
X110546993Y-88733465D02*
X110404136Y-88781084D01*
X110404136Y-88781084D02*
X110356517Y-88828703D01*
X110356517Y-88828703D02*
X110308898Y-88923941D01*
X110308898Y-88923941D02*
X110308898Y-89066798D01*
X110308898Y-89066798D02*
X110356517Y-89162036D01*
X110356517Y-89162036D02*
X110404136Y-89209656D01*
X110404136Y-89209656D02*
X110499374Y-89257275D01*
X110499374Y-89257275D02*
X110880326Y-89257275D01*
X110880326Y-89257275D02*
X110880326Y-88257275D01*
X110880326Y-88257275D02*
X110546993Y-88257275D01*
X110546993Y-88257275D02*
X110451755Y-88304894D01*
X110451755Y-88304894D02*
X110404136Y-88352513D01*
X110404136Y-88352513D02*
X110356517Y-88447751D01*
X110356517Y-88447751D02*
X110356517Y-88542989D01*
X110356517Y-88542989D02*
X110404136Y-88638227D01*
X110404136Y-88638227D02*
X110451755Y-88685846D01*
X110451755Y-88685846D02*
X110546993Y-88733465D01*
X110546993Y-88733465D02*
X110880326Y-88733465D01*
X108546993Y-89257275D02*
X108880326Y-88781084D01*
X109118421Y-89257275D02*
X109118421Y-88257275D01*
X109118421Y-88257275D02*
X108737469Y-88257275D01*
X108737469Y-88257275D02*
X108642231Y-88304894D01*
X108642231Y-88304894D02*
X108594612Y-88352513D01*
X108594612Y-88352513D02*
X108546993Y-88447751D01*
X108546993Y-88447751D02*
X108546993Y-88590608D01*
X108546993Y-88590608D02*
X108594612Y-88685846D01*
X108594612Y-88685846D02*
X108642231Y-88733465D01*
X108642231Y-88733465D02*
X108737469Y-88781084D01*
X108737469Y-88781084D02*
X109118421Y-88781084D01*
X108118421Y-88733465D02*
X107785088Y-88733465D01*
X107642231Y-89257275D02*
X108118421Y-89257275D01*
X108118421Y-89257275D02*
X108118421Y-88257275D01*
X108118421Y-88257275D02*
X107642231Y-88257275D01*
X107356516Y-88257275D02*
X107023183Y-89257275D01*
X107023183Y-89257275D02*
X106689850Y-88257275D01*
X105261278Y-88733465D02*
X105118421Y-88781084D01*
X105118421Y-88781084D02*
X105070802Y-88828703D01*
X105070802Y-88828703D02*
X105023183Y-88923941D01*
X105023183Y-88923941D02*
X105023183Y-89066798D01*
X105023183Y-89066798D02*
X105070802Y-89162036D01*
X105070802Y-89162036D02*
X105118421Y-89209656D01*
X105118421Y-89209656D02*
X105213659Y-89257275D01*
X105213659Y-89257275D02*
X105594611Y-89257275D01*
X105594611Y-89257275D02*
X105594611Y-88257275D01*
X105594611Y-88257275D02*
X105261278Y-88257275D01*
X105261278Y-88257275D02*
X105166040Y-88304894D01*
X105166040Y-88304894D02*
X105118421Y-88352513D01*
X105118421Y-88352513D02*
X105070802Y-88447751D01*
X105070802Y-88447751D02*
X105070802Y-88542989D01*
X105070802Y-88542989D02*
X105118421Y-88638227D01*
X105118421Y-88638227D02*
X105166040Y-88685846D01*
X105166040Y-88685846D02*
X105261278Y-88733465D01*
X105261278Y-88733465D02*
X105594611Y-88733465D01*
X112927945Y-89962457D02*
X112880326Y-89914838D01*
X112880326Y-89914838D02*
X112785088Y-89867219D01*
X112785088Y-89867219D02*
X112546993Y-89867219D01*
X112546993Y-89867219D02*
X112451755Y-89914838D01*
X112451755Y-89914838D02*
X112404136Y-89962457D01*
X112404136Y-89962457D02*
X112356517Y-90057695D01*
X112356517Y-90057695D02*
X112356517Y-90152933D01*
X112356517Y-90152933D02*
X112404136Y-90295790D01*
X112404136Y-90295790D02*
X112975564Y-90867219D01*
X112975564Y-90867219D02*
X112356517Y-90867219D01*
X111737469Y-89867219D02*
X111642231Y-89867219D01*
X111642231Y-89867219D02*
X111546993Y-89914838D01*
X111546993Y-89914838D02*
X111499374Y-89962457D01*
X111499374Y-89962457D02*
X111451755Y-90057695D01*
X111451755Y-90057695D02*
X111404136Y-90248171D01*
X111404136Y-90248171D02*
X111404136Y-90486266D01*
X111404136Y-90486266D02*
X111451755Y-90676742D01*
X111451755Y-90676742D02*
X111499374Y-90771980D01*
X111499374Y-90771980D02*
X111546993Y-90819600D01*
X111546993Y-90819600D02*
X111642231Y-90867219D01*
X111642231Y-90867219D02*
X111737469Y-90867219D01*
X111737469Y-90867219D02*
X111832707Y-90819600D01*
X111832707Y-90819600D02*
X111880326Y-90771980D01*
X111880326Y-90771980D02*
X111927945Y-90676742D01*
X111927945Y-90676742D02*
X111975564Y-90486266D01*
X111975564Y-90486266D02*
X111975564Y-90248171D01*
X111975564Y-90248171D02*
X111927945Y-90057695D01*
X111927945Y-90057695D02*
X111880326Y-89962457D01*
X111880326Y-89962457D02*
X111832707Y-89914838D01*
X111832707Y-89914838D02*
X111737469Y-89867219D01*
X111023183Y-89962457D02*
X110975564Y-89914838D01*
X110975564Y-89914838D02*
X110880326Y-89867219D01*
X110880326Y-89867219D02*
X110642231Y-89867219D01*
X110642231Y-89867219D02*
X110546993Y-89914838D01*
X110546993Y-89914838D02*
X110499374Y-89962457D01*
X110499374Y-89962457D02*
X110451755Y-90057695D01*
X110451755Y-90057695D02*
X110451755Y-90152933D01*
X110451755Y-90152933D02*
X110499374Y-90295790D01*
X110499374Y-90295790D02*
X111070802Y-90867219D01*
X111070802Y-90867219D02*
X110451755Y-90867219D01*
X109594612Y-89867219D02*
X109785088Y-89867219D01*
X109785088Y-89867219D02*
X109880326Y-89914838D01*
X109880326Y-89914838D02*
X109927945Y-89962457D01*
X109927945Y-89962457D02*
X110023183Y-90105314D01*
X110023183Y-90105314D02*
X110070802Y-90295790D01*
X110070802Y-90295790D02*
X110070802Y-90676742D01*
X110070802Y-90676742D02*
X110023183Y-90771980D01*
X110023183Y-90771980D02*
X109975564Y-90819600D01*
X109975564Y-90819600D02*
X109880326Y-90867219D01*
X109880326Y-90867219D02*
X109689850Y-90867219D01*
X109689850Y-90867219D02*
X109594612Y-90819600D01*
X109594612Y-90819600D02*
X109546993Y-90771980D01*
X109546993Y-90771980D02*
X109499374Y-90676742D01*
X109499374Y-90676742D02*
X109499374Y-90438647D01*
X109499374Y-90438647D02*
X109546993Y-90343409D01*
X109546993Y-90343409D02*
X109594612Y-90295790D01*
X109594612Y-90295790D02*
X109689850Y-90248171D01*
X109689850Y-90248171D02*
X109880326Y-90248171D01*
X109880326Y-90248171D02*
X109975564Y-90295790D01*
X109975564Y-90295790D02*
X110023183Y-90343409D01*
X110023183Y-90343409D02*
X110070802Y-90438647D01*
X109070802Y-90486266D02*
X108308898Y-90486266D01*
X107642231Y-89867219D02*
X107546993Y-89867219D01*
X107546993Y-89867219D02*
X107451755Y-89914838D01*
X107451755Y-89914838D02*
X107404136Y-89962457D01*
X107404136Y-89962457D02*
X107356517Y-90057695D01*
X107356517Y-90057695D02*
X107308898Y-90248171D01*
X107308898Y-90248171D02*
X107308898Y-90486266D01*
X107308898Y-90486266D02*
X107356517Y-90676742D01*
X107356517Y-90676742D02*
X107404136Y-90771980D01*
X107404136Y-90771980D02*
X107451755Y-90819600D01*
X107451755Y-90819600D02*
X107546993Y-90867219D01*
X107546993Y-90867219D02*
X107642231Y-90867219D01*
X107642231Y-90867219D02*
X107737469Y-90819600D01*
X107737469Y-90819600D02*
X107785088Y-90771980D01*
X107785088Y-90771980D02*
X107832707Y-90676742D01*
X107832707Y-90676742D02*
X107880326Y-90486266D01*
X107880326Y-90486266D02*
X107880326Y-90248171D01*
X107880326Y-90248171D02*
X107832707Y-90057695D01*
X107832707Y-90057695D02*
X107785088Y-89962457D01*
X107785088Y-89962457D02*
X107737469Y-89914838D01*
X107737469Y-89914838D02*
X107642231Y-89867219D01*
X106737469Y-90295790D02*
X106832707Y-90248171D01*
X106832707Y-90248171D02*
X106880326Y-90200552D01*
X106880326Y-90200552D02*
X106927945Y-90105314D01*
X106927945Y-90105314D02*
X106927945Y-90057695D01*
X106927945Y-90057695D02*
X106880326Y-89962457D01*
X106880326Y-89962457D02*
X106832707Y-89914838D01*
X106832707Y-89914838D02*
X106737469Y-89867219D01*
X106737469Y-89867219D02*
X106546993Y-89867219D01*
X106546993Y-89867219D02*
X106451755Y-89914838D01*
X106451755Y-89914838D02*
X106404136Y-89962457D01*
X106404136Y-89962457D02*
X106356517Y-90057695D01*
X106356517Y-90057695D02*
X106356517Y-90105314D01*
X106356517Y-90105314D02*
X106404136Y-90200552D01*
X106404136Y-90200552D02*
X106451755Y-90248171D01*
X106451755Y-90248171D02*
X106546993Y-90295790D01*
X106546993Y-90295790D02*
X106737469Y-90295790D01*
X106737469Y-90295790D02*
X106832707Y-90343409D01*
X106832707Y-90343409D02*
X106880326Y-90391028D01*
X106880326Y-90391028D02*
X106927945Y-90486266D01*
X106927945Y-90486266D02*
X106927945Y-90676742D01*
X106927945Y-90676742D02*
X106880326Y-90771980D01*
X106880326Y-90771980D02*
X106832707Y-90819600D01*
X106832707Y-90819600D02*
X106737469Y-90867219D01*
X106737469Y-90867219D02*
X106546993Y-90867219D01*
X106546993Y-90867219D02*
X106451755Y-90819600D01*
X106451755Y-90819600D02*
X106404136Y-90771980D01*
X106404136Y-90771980D02*
X106356517Y-90676742D01*
X106356517Y-90676742D02*
X106356517Y-90486266D01*
X106356517Y-90486266D02*
X106404136Y-90391028D01*
X106404136Y-90391028D02*
X106451755Y-90343409D01*
X106451755Y-90343409D02*
X106546993Y-90295790D01*
G36*
X109620127Y-65237686D02*
G01*
X109673066Y-65254055D01*
X109719547Y-65280756D01*
X109760650Y-65318450D01*
X109792011Y-65363231D01*
X109815885Y-65419763D01*
X109831477Y-65490658D01*
X109837159Y-65579118D01*
X109831418Y-65665777D01*
X109815561Y-65736154D01*
X109791078Y-65793151D01*
X109758635Y-65839115D01*
X109716381Y-65878059D01*
X109669750Y-65905349D01*
X109617807Y-65921890D01*
X109559150Y-65927592D01*
X109500447Y-65921910D01*
X109448679Y-65905459D01*
X109402417Y-65878373D01*
X109360703Y-65839787D01*
X109328872Y-65794278D01*
X109304677Y-65737028D01*
X109288899Y-65665450D01*
X109283155Y-65576371D01*
X109288780Y-65488166D01*
X109304190Y-65417668D01*
X109327744Y-65361634D01*
X109358627Y-65317412D01*
X109399168Y-65280253D01*
X109445278Y-65253866D01*
X109498066Y-65237646D01*
X109559150Y-65231988D01*
X109620127Y-65237686D01*
G37*
G36*
X112446039Y-65532896D02*
G01*
X112335397Y-65532896D01*
X112225708Y-65527802D01*
X112175540Y-65516898D01*
X112139371Y-65496222D01*
X112112342Y-65466889D01*
X112095307Y-65430514D01*
X112089445Y-65387632D01*
X112093222Y-65351770D01*
X112103991Y-65321582D01*
X112121563Y-65295858D01*
X112144829Y-65274799D01*
X112171681Y-65259825D01*
X112202834Y-65250673D01*
X112248092Y-65245938D01*
X112348342Y-65243712D01*
X112446039Y-65243712D01*
X112446039Y-65532896D01*
G37*
G36*
X112759322Y-66210650D02*
G01*
X108963034Y-66210650D01*
X108963034Y-65581133D01*
X109074145Y-65581133D01*
X109080100Y-65679835D01*
X109097019Y-65765570D01*
X109123867Y-65840201D01*
X109160158Y-65905302D01*
X109205975Y-65962091D01*
X109261232Y-66010814D01*
X109323023Y-66048750D01*
X109392267Y-66076375D01*
X109470234Y-66093552D01*
X109558478Y-66099539D01*
X109647971Y-66093547D01*
X109710181Y-66080000D01*
X110197295Y-66080000D01*
X110399528Y-66080000D01*
X110399528Y-65789656D01*
X110952189Y-65789656D01*
X110957472Y-65845732D01*
X110973256Y-65899248D01*
X111000000Y-65951100D01*
X111035997Y-65996677D01*
X111080686Y-66033801D01*
X111135249Y-66062964D01*
X111194678Y-66082394D01*
X111266559Y-66094997D01*
X111353175Y-66099539D01*
X111449026Y-66093247D01*
X111527705Y-66075790D01*
X111592178Y-66048712D01*
X111644862Y-66012711D01*
X111689224Y-65966138D01*
X111724363Y-65909641D01*
X111750350Y-65841537D01*
X111766434Y-65759553D01*
X111569696Y-65740013D01*
X111552541Y-65802095D01*
X111528287Y-65848410D01*
X111497644Y-65882224D01*
X111459028Y-65906595D01*
X111411011Y-65922033D01*
X111351099Y-65927592D01*
X111287065Y-65922326D01*
X111239238Y-65908212D01*
X111203881Y-65886864D01*
X111175586Y-65857092D01*
X111159634Y-65825725D01*
X111154361Y-65791610D01*
X111159677Y-65758917D01*
X111175183Y-65732076D01*
X111201227Y-65710653D01*
X111247967Y-65689333D01*
X111409839Y-65644881D01*
X111517388Y-65611872D01*
X111590653Y-65578170D01*
X111638023Y-65544680D01*
X111678986Y-65499916D01*
X111707393Y-65451782D01*
X111724416Y-65399430D01*
X111725914Y-65384518D01*
X111881045Y-65384518D01*
X111881253Y-65387632D01*
X111885116Y-65445429D01*
X111896544Y-65496722D01*
X111914506Y-65539979D01*
X111939432Y-65579805D01*
X111967751Y-65612537D01*
X111999563Y-65638958D01*
X112052513Y-65669250D01*
X112104466Y-65686524D01*
X112184996Y-65696746D01*
X112314209Y-65700935D01*
X112446039Y-65700935D01*
X112446039Y-66080000D01*
X112648211Y-66080000D01*
X112648211Y-65075673D01*
X112323735Y-65075673D01*
X112155085Y-65080581D01*
X112083278Y-65090755D01*
X112029387Y-65111514D01*
X111981645Y-65143884D01*
X111939113Y-65189063D01*
X111907760Y-65242310D01*
X111888063Y-65306553D01*
X111881045Y-65384518D01*
X111725914Y-65384518D01*
X111730225Y-65341592D01*
X111725436Y-65291472D01*
X111711129Y-65243691D01*
X111686871Y-65197428D01*
X111654218Y-65156753D01*
X111612949Y-65122755D01*
X111561819Y-65095151D01*
X111506303Y-65076325D01*
X111441171Y-65064312D01*
X111364776Y-65060041D01*
X111269160Y-65066181D01*
X111192096Y-65083071D01*
X111130252Y-65109002D01*
X111080905Y-65143145D01*
X111039177Y-65187783D01*
X111008837Y-65238752D01*
X110989265Y-65297213D01*
X110980826Y-65364856D01*
X111183060Y-65372672D01*
X111196091Y-65323265D01*
X111214873Y-65287315D01*
X111238747Y-65261847D01*
X111269127Y-65244234D01*
X111310682Y-65232488D01*
X111366791Y-65228080D01*
X111424614Y-65232668D01*
X111469729Y-65245182D01*
X111504788Y-65264412D01*
X111522794Y-65281888D01*
X111533297Y-65302306D01*
X111536906Y-65326693D01*
X111529587Y-65359382D01*
X111506864Y-65387693D01*
X111478090Y-65405373D01*
X111420923Y-65427694D01*
X111321057Y-65455287D01*
X111183902Y-65494167D01*
X111102826Y-65528011D01*
X111058670Y-65556224D01*
X111022035Y-65590069D01*
X110992184Y-65629921D01*
X110970590Y-65674673D01*
X110957002Y-65727353D01*
X110952189Y-65789656D01*
X110399528Y-65789656D01*
X110399528Y-65075673D01*
X110197295Y-65075673D01*
X110197295Y-66080000D01*
X109710181Y-66080000D01*
X109726782Y-66076385D01*
X109796518Y-66048844D01*
X109858493Y-66011111D01*
X109913668Y-65962763D01*
X109959594Y-65906176D01*
X109995899Y-65841541D01*
X110022706Y-65767686D01*
X110039570Y-65683092D01*
X110045498Y-65585957D01*
X110039852Y-65484196D01*
X110024116Y-65399124D01*
X109999703Y-65328159D01*
X109959398Y-65255381D01*
X109906524Y-65190345D01*
X109865064Y-65152503D01*
X109821980Y-65122533D01*
X109777015Y-65099792D01*
X109713477Y-65078232D01*
X109641946Y-65064750D01*
X109561165Y-65060041D01*
X109472696Y-65066038D01*
X109394441Y-65083249D01*
X109324858Y-65110941D01*
X109262687Y-65148984D01*
X109207013Y-65197855D01*
X109160862Y-65254785D01*
X109124293Y-65320160D01*
X109097225Y-65395223D01*
X109080156Y-65481580D01*
X109074433Y-65576371D01*
X109074145Y-65581133D01*
X108963034Y-65581133D01*
X108963034Y-64948930D01*
X112759322Y-64948930D01*
X112759322Y-66210650D01*
G37*
G36*
X109723686Y-94237686D02*
G01*
X109776625Y-94254055D01*
X109823106Y-94280756D01*
X109864209Y-94318450D01*
X109895570Y-94363231D01*
X109919444Y-94419763D01*
X109935036Y-94490658D01*
X109940718Y-94579118D01*
X109934977Y-94665777D01*
X109919120Y-94736154D01*
X109894637Y-94793151D01*
X109862194Y-94839115D01*
X109819940Y-94878059D01*
X109773309Y-94905349D01*
X109721366Y-94921890D01*
X109662709Y-94927592D01*
X109604006Y-94921910D01*
X109552238Y-94905459D01*
X109505976Y-94878373D01*
X109464262Y-94839787D01*
X109432431Y-94794278D01*
X109408236Y-94737028D01*
X109392458Y-94665450D01*
X109386714Y-94576371D01*
X109392339Y-94488166D01*
X109407749Y-94417668D01*
X109431303Y-94361634D01*
X109462185Y-94317412D01*
X109502727Y-94280253D01*
X109548837Y-94253866D01*
X109601625Y-94237646D01*
X109662709Y-94231988D01*
X109723686Y-94237686D01*
G37*
G36*
X112446039Y-94532896D02*
G01*
X112335397Y-94532896D01*
X112225708Y-94527802D01*
X112175540Y-94516898D01*
X112139371Y-94496222D01*
X112112342Y-94466889D01*
X112095307Y-94430514D01*
X112089445Y-94387632D01*
X112093222Y-94351770D01*
X112103991Y-94321582D01*
X112121563Y-94295858D01*
X112144829Y-94274799D01*
X112171681Y-94259825D01*
X112202834Y-94250673D01*
X112248092Y-94245938D01*
X112348342Y-94243712D01*
X112446039Y-94243712D01*
X112446039Y-94532896D01*
G37*
G36*
X112759322Y-95210650D02*
G01*
X109066593Y-95210650D01*
X109066593Y-94581133D01*
X109177704Y-94581133D01*
X109183659Y-94679835D01*
X109200578Y-94765570D01*
X109227426Y-94840201D01*
X109263717Y-94905302D01*
X109309534Y-94962091D01*
X109364791Y-95010814D01*
X109426582Y-95048750D01*
X109495826Y-95076375D01*
X109573793Y-95093552D01*
X109662037Y-95099539D01*
X109751530Y-95093547D01*
X109813740Y-95080000D01*
X110300854Y-95080000D01*
X110503087Y-95080000D01*
X110503087Y-94911960D01*
X111004762Y-94911960D01*
X111004762Y-95080000D01*
X111709769Y-95080000D01*
X111709769Y-94384518D01*
X111881045Y-94384518D01*
X111881253Y-94387632D01*
X111885116Y-94445429D01*
X111896544Y-94496722D01*
X111914506Y-94539979D01*
X111939432Y-94579805D01*
X111967751Y-94612537D01*
X111999563Y-94638958D01*
X112052513Y-94669250D01*
X112104466Y-94686524D01*
X112184996Y-94696746D01*
X112314209Y-94700935D01*
X112446039Y-94700935D01*
X112446039Y-95080000D01*
X112648211Y-95080000D01*
X112648211Y-94075673D01*
X112323735Y-94075673D01*
X112155085Y-94080581D01*
X112083278Y-94090755D01*
X112029387Y-94111514D01*
X111981645Y-94143884D01*
X111939113Y-94189063D01*
X111907760Y-94242310D01*
X111888063Y-94306553D01*
X111881045Y-94384518D01*
X111709769Y-94384518D01*
X111709769Y-94087397D01*
X111507536Y-94087397D01*
X111507536Y-94911960D01*
X111004762Y-94911960D01*
X110503087Y-94911960D01*
X110503087Y-94075673D01*
X110300854Y-94075673D01*
X110300854Y-95080000D01*
X109813740Y-95080000D01*
X109830341Y-95076385D01*
X109900077Y-95048844D01*
X109962052Y-95011111D01*
X110017227Y-94962763D01*
X110063153Y-94906176D01*
X110099458Y-94841541D01*
X110126265Y-94767686D01*
X110143129Y-94683092D01*
X110149057Y-94585957D01*
X110143411Y-94484196D01*
X110127675Y-94399124D01*
X110103262Y-94328159D01*
X110062957Y-94255381D01*
X110010083Y-94190345D01*
X109968623Y-94152503D01*
X109925539Y-94122533D01*
X109880573Y-94099792D01*
X109817036Y-94078232D01*
X109745505Y-94064750D01*
X109664724Y-94060041D01*
X109576255Y-94066038D01*
X109498000Y-94083249D01*
X109428417Y-94110941D01*
X109366246Y-94148984D01*
X109310572Y-94197855D01*
X109264421Y-94254785D01*
X109227852Y-94320160D01*
X109200784Y-94395223D01*
X109183715Y-94481580D01*
X109177992Y-94576371D01*
X109177704Y-94581133D01*
X109066593Y-94581133D01*
X109066593Y-93948930D01*
X112759322Y-93948930D01*
X112759322Y-95210650D01*
G37*
%TO.C,C550*%
D11*
X123490000Y-85859420D02*
X123490000Y-86140580D01*
X124510000Y-85859420D02*
X124510000Y-86140580D01*
%TO.C,R302*%
X102320000Y-72853641D02*
X102320000Y-72546359D01*
X103080000Y-72853641D02*
X103080000Y-72546359D01*
%TO.C,R705*%
X132953641Y-71220000D02*
X132646359Y-71220000D01*
X132953641Y-71980000D02*
X132646359Y-71980000D01*
%TO.C,C311*%
X128140000Y-82792164D02*
X128140000Y-83007836D01*
X128860000Y-82792164D02*
X128860000Y-83007836D01*
%TO.C,C702*%
X129992164Y-75140000D02*
X130207836Y-75140000D01*
X129992164Y-75860000D02*
X130207836Y-75860000D01*
%TO.C,C308*%
X106587836Y-69740000D02*
X106372164Y-69740000D01*
X106587836Y-70460000D02*
X106372164Y-70460000D01*
%TO.C,C574*%
X132392164Y-82840000D02*
X132607836Y-82840000D01*
X132392164Y-83560000D02*
X132607836Y-83560000D01*
%TO.C,C546*%
X128690000Y-71840580D02*
X128690000Y-71559420D01*
X129710000Y-71840580D02*
X129710000Y-71559420D01*
%TO.C,C306*%
X102340000Y-80192164D02*
X102340000Y-80407836D01*
X103060000Y-80192164D02*
X103060000Y-80407836D01*
%TO.C,R201*%
X132646359Y-83720000D02*
X132953641Y-83720000D01*
X132646359Y-84480000D02*
X132953641Y-84480000D01*
%TO.C,C555*%
X139207836Y-74440000D02*
X138992164Y-74440000D01*
X139207836Y-75160000D02*
X138992164Y-75160000D01*
%TO.C,C201*%
X132307836Y-79640000D02*
X132092164Y-79640000D01*
X132307836Y-80360000D02*
X132092164Y-80360000D01*
%TO.C,C313*%
X129192164Y-77740000D02*
X129407836Y-77740000D01*
X129192164Y-78460000D02*
X129407836Y-78460000D01*
%TO.C,C532*%
X132507836Y-76440000D02*
X132292164Y-76440000D01*
X132507836Y-77160000D02*
X132292164Y-77160000D01*
%TO.C,C526*%
X132607836Y-82040000D02*
X132392164Y-82040000D01*
X132607836Y-82760000D02*
X132392164Y-82760000D01*
%TO.C,C554*%
X136392164Y-82840000D02*
X136607836Y-82840000D01*
X136392164Y-83560000D02*
X136607836Y-83560000D01*
%TO.C,C304*%
X102340000Y-70692164D02*
X102340000Y-70907836D01*
X103060000Y-70692164D02*
X103060000Y-70907836D01*
%TO.C,C564*%
X139407836Y-81140000D02*
X139192164Y-81140000D01*
X139407836Y-81860000D02*
X139192164Y-81860000D01*
%TO.C,C556*%
X126207836Y-72040000D02*
X125992164Y-72040000D01*
X126207836Y-72760000D02*
X125992164Y-72760000D01*
%TO.C,C569*%
X134207836Y-78340000D02*
X133992164Y-78340000D01*
X134207836Y-79060000D02*
X133992164Y-79060000D01*
%TO.C,R211*%
X132053641Y-74620000D02*
X131746359Y-74620000D01*
X132053641Y-75380000D02*
X131746359Y-75380000D01*
%TO.C,C559*%
X136607836Y-79240000D02*
X136392164Y-79240000D01*
X136607836Y-79960000D02*
X136392164Y-79960000D01*
%TO.C,C547*%
X134792164Y-81240000D02*
X135007836Y-81240000D01*
X134792164Y-81960000D02*
X135007836Y-81960000D01*
%TO.C,R203*%
X129553641Y-80420000D02*
X129246359Y-80420000D01*
X129553641Y-81180000D02*
X129246359Y-81180000D01*
%TO.C,C524*%
X145640580Y-81990000D02*
X145359420Y-81990000D01*
X145640580Y-83010000D02*
X145359420Y-83010000D01*
%TO.C,R703*%
X135720000Y-72646359D02*
X135720000Y-72953641D01*
X136480000Y-72646359D02*
X136480000Y-72953641D01*
%TO.C,R306*%
X123020000Y-78053641D02*
X123020000Y-77746359D01*
X123780000Y-78053641D02*
X123780000Y-77746359D01*
%TO.C,R701*%
X127720000Y-71746359D02*
X127720000Y-72053641D01*
X128480000Y-71746359D02*
X128480000Y-72053641D01*
%TO.C,C551*%
X134140000Y-72792164D02*
X134140000Y-73007836D01*
X134860000Y-72792164D02*
X134860000Y-73007836D01*
%TO.C,J402*%
D10*
X113400000Y-63000000D02*
X113400000Y-68000000D01*
X113400000Y-68000000D02*
X114000000Y-68000000D01*
X114000000Y-63000000D02*
X113400000Y-63000000D01*
D12*
X115000000Y-69400000D02*
X115000000Y-69400000D01*
X115000000Y-69500000D02*
X115000000Y-69500000D01*
D10*
X136000000Y-63000000D02*
X136600000Y-63000000D01*
X136600000Y-63000000D02*
X136600000Y-68000000D01*
X136600000Y-68000000D02*
X136000000Y-68000000D01*
D12*
X115000000Y-69400000D02*
G75*
G02*
X115000000Y-69500000I0J-50000D01*
G01*
X115000000Y-69500000D02*
G75*
G02*
X115000000Y-69400000I0J50000D01*
G01*
%TO.C,C565*%
D11*
X135992164Y-77240000D02*
X136207836Y-77240000D01*
X135992164Y-77960000D02*
X136207836Y-77960000D01*
%TO.C,C527*%
X141940580Y-78690000D02*
X141659420Y-78690000D01*
X141940580Y-79710000D02*
X141659420Y-79710000D01*
%TO.C,R202*%
X130346359Y-84520000D02*
X130653641Y-84520000D01*
X130346359Y-85280000D02*
X130653641Y-85280000D01*
%TO.C,R706*%
X130746359Y-71220000D02*
X131053641Y-71220000D01*
X130746359Y-71980000D02*
X131053641Y-71980000D01*
%TO.C,R309*%
X125220000Y-83946359D02*
X125220000Y-84253641D01*
X125980000Y-83946359D02*
X125980000Y-84253641D01*
%TO.C,J403*%
D10*
X113400000Y-92000000D02*
X113400000Y-97000000D01*
X113400000Y-97000000D02*
X114000000Y-97000000D01*
X114000000Y-92000000D02*
X113400000Y-92000000D01*
D12*
X115000000Y-98400000D02*
X115000000Y-98400000D01*
X115000000Y-98500000D02*
X115000000Y-98500000D01*
D10*
X136000000Y-92000000D02*
X136600000Y-92000000D01*
X136600000Y-92000000D02*
X136600000Y-97000000D01*
X136600000Y-97000000D02*
X136000000Y-97000000D01*
D12*
X115000000Y-98400000D02*
G75*
G02*
X115000000Y-98500000I0J-50000D01*
G01*
X115000000Y-98500000D02*
G75*
G02*
X115000000Y-98400000I0J50000D01*
G01*
%TO.C,C522*%
D11*
X145640580Y-80740000D02*
X145359420Y-80740000D01*
X145640580Y-81760000D02*
X145359420Y-81760000D01*
%TO.C,C563*%
X130207836Y-82540000D02*
X129992164Y-82540000D01*
X130207836Y-83260000D02*
X129992164Y-83260000D01*
%TO.C,C539*%
X133992164Y-77540000D02*
X134207836Y-77540000D01*
X133992164Y-78260000D02*
X134207836Y-78260000D01*
%TO.C,C312*%
X110172164Y-69740000D02*
X110387836Y-69740000D01*
X110172164Y-70460000D02*
X110387836Y-70460000D01*
%TO.C,C314*%
X108272164Y-69740000D02*
X108487836Y-69740000D01*
X108272164Y-70460000D02*
X108487836Y-70460000D01*
%TO.C,C558*%
X134790000Y-85607836D02*
X134790000Y-85392164D01*
X135510000Y-85607836D02*
X135510000Y-85392164D01*
%TO.C,C530*%
X129992164Y-83340000D02*
X130207836Y-83340000D01*
X129992164Y-84060000D02*
X130207836Y-84060000D01*
%TO.C,C704*%
X133592164Y-74840000D02*
X133807836Y-74840000D01*
X133592164Y-75560000D02*
X133807836Y-75560000D01*
%TO.C,C570*%
X138592164Y-86040000D02*
X138807836Y-86040000D01*
X138592164Y-86760000D02*
X138807836Y-86760000D01*
%TO.C,C525*%
X141940580Y-77490000D02*
X141659420Y-77490000D01*
X141940580Y-78510000D02*
X141659420Y-78510000D01*
%TO.C,C302*%
X108492164Y-80540000D02*
X108707836Y-80540000D01*
X108492164Y-81260000D02*
X108707836Y-81260000D01*
%TO.C,C523*%
X146038748Y-74565000D02*
X146561252Y-74565000D01*
X146038748Y-76035000D02*
X146561252Y-76035000D01*
%TO.C,C521*%
X146038748Y-76765000D02*
X146561252Y-76765000D01*
X146038748Y-78235000D02*
X146561252Y-78235000D01*
%TO.C,C202*%
X128607836Y-79240000D02*
X128392164Y-79240000D01*
X128607836Y-79960000D02*
X128392164Y-79960000D01*
%TO.C,C548*%
X139690000Y-85740580D02*
X139690000Y-85459420D01*
X140710000Y-85740580D02*
X140710000Y-85459420D01*
%TO.C,C301*%
X106692164Y-80540000D02*
X106907836Y-80540000D01*
X106692164Y-81260000D02*
X106907836Y-81260000D01*
%TO.C,C305*%
X102340000Y-78292164D02*
X102340000Y-78507836D01*
X103060000Y-78292164D02*
X103060000Y-78507836D01*
%TO.C,C508*%
X130892164Y-77740000D02*
X131107836Y-77740000D01*
X130892164Y-78460000D02*
X131107836Y-78460000D01*
%TO.C,C538*%
X129340000Y-76907836D02*
X129340000Y-76692164D01*
X130060000Y-76907836D02*
X130060000Y-76692164D01*
%TO.C,C536*%
X133892164Y-79640000D02*
X134107836Y-79640000D01*
X133892164Y-80360000D02*
X134107836Y-80360000D01*
%TO.C,R308*%
X125946359Y-82420000D02*
X126253641Y-82420000D01*
X125946359Y-83180000D02*
X126253641Y-83180000D01*
%TO.C,C533*%
X143040580Y-74890000D02*
X142759420Y-74890000D01*
X143040580Y-75910000D02*
X142759420Y-75910000D01*
%TO.C,C542*%
X133740000Y-83592164D02*
X133740000Y-83807836D01*
X134460000Y-83592164D02*
X134460000Y-83807836D01*
%TO.C,C552*%
X134607836Y-80440000D02*
X134392164Y-80440000D01*
X134607836Y-81160000D02*
X134392164Y-81160000D01*
%TO.C,C528*%
X132707836Y-80440000D02*
X132492164Y-80440000D01*
X132707836Y-81160000D02*
X132492164Y-81160000D01*
%TO.C,C571*%
X139892164Y-76440000D02*
X140107836Y-76440000D01*
X139892164Y-77160000D02*
X140107836Y-77160000D01*
%TO.C,C310*%
X102340000Y-76392164D02*
X102340000Y-76607836D01*
X103060000Y-76392164D02*
X103060000Y-76607836D01*
%TO.C,C560*%
X127807836Y-84340000D02*
X127592164Y-84340000D01*
X127807836Y-85060000D02*
X127592164Y-85060000D01*
%TO.C,C568*%
X132507836Y-75640000D02*
X132292164Y-75640000D01*
X132507836Y-76360000D02*
X132292164Y-76360000D01*
%TO.C,R305*%
X123920000Y-77746359D02*
X123920000Y-78053641D01*
X124680000Y-77746359D02*
X124680000Y-78053641D01*
%TO.C,C566*%
X127592164Y-86240000D02*
X127807836Y-86240000D01*
X127592164Y-86960000D02*
X127807836Y-86960000D01*
%TO.C,C562*%
X145640580Y-79490000D02*
X145359420Y-79490000D01*
X145640580Y-80510000D02*
X145359420Y-80510000D01*
%TO.C,C507*%
X121590000Y-77759420D02*
X121590000Y-78040580D01*
X122610000Y-77759420D02*
X122610000Y-78040580D01*
%TO.C,R704*%
X134753641Y-71220000D02*
X134446359Y-71220000D01*
X134753641Y-71980000D02*
X134446359Y-71980000D01*
%TO.C,C549*%
X140190000Y-74140580D02*
X140190000Y-73859420D01*
X141210000Y-74140580D02*
X141210000Y-73859420D01*
%TO.C,R207*%
X125946359Y-72820000D02*
X126253641Y-72820000D01*
X125946359Y-73580000D02*
X126253641Y-73580000D01*
%TO.C,C309*%
X102340000Y-74472164D02*
X102340000Y-74687836D01*
X103060000Y-74472164D02*
X103060000Y-74687836D01*
%TO.C,C553*%
X143040580Y-73490000D02*
X142759420Y-73490000D01*
X143040580Y-74510000D02*
X142759420Y-74510000D01*
%TO.C,C572*%
X126040000Y-85707836D02*
X126040000Y-85492164D01*
X126760000Y-85707836D02*
X126760000Y-85492164D01*
%TO.C,C575*%
X130392164Y-79640000D02*
X130607836Y-79640000D01*
X130392164Y-80360000D02*
X130607836Y-80360000D01*
%TO.C,C573*%
X129292164Y-81240000D02*
X129507836Y-81240000D01*
X129292164Y-81960000D02*
X129507836Y-81960000D01*
%TO.C,R304*%
X123020000Y-81353641D02*
X123020000Y-81046359D01*
X123780000Y-81353641D02*
X123780000Y-81046359D01*
%TO.C,C303*%
X104687836Y-69740000D02*
X104472164Y-69740000D01*
X104687836Y-70460000D02*
X104472164Y-70460000D01*
%TD*%
M02*
