M48
; DRILL file KiCad 10.0.5 date 2026-09-09T16:14:42
; FORMAT={-:-/ absolute / metric / decimal}
; #@! TF.CreationDate,2026-09-09T16:14:42+08:00
; #@! TF.GenerationSoftware,Kicad,Pcbnew,10.0.5
; #@! TF.FileFunction,Plated,1,6,PTH
FMAT,2
METRIC
; #@! TA.AperFunction,Plated,PTH,ViaDrill
T1C0.300
%
G90
G05
T1
X101.5Y-66.25
X101.5Y-71.75
X101.5Y-74.75
X101.5Y-77.75
X101.5Y-80.75
X101.5Y-84.75
X101.75Y-87.25
X102.2Y-92.2
X102.25Y-69.0
X102.3Y-90.2
X102.7Y-70.32
X102.7Y-71.28
X102.7Y-72.19
X102.7Y-73.21
X102.7Y-74.1
X102.7Y-75.06
X102.7Y-76.02
X102.7Y-76.98
X102.7Y-77.92
X102.7Y-78.88
X102.7Y-79.82
X102.7Y-80.78
X103.25Y-83.25
X104.1Y-70.1
X104.42Y-80.9
X104.7Y-92.75
X104.7Y-93.9
X104.75Y-67.25
X105.0Y-72.3
X105.0Y-73.9
X105.0Y-77.1
X105.0Y-78.7
X105.06Y-70.1
X105.1Y-91.7
X105.38Y-80.9
X105.4Y-90.0
X105.533Y-92.75
X105.533Y-93.9
X105.8Y-72.3
X105.8Y-73.1
X105.8Y-77.1
X105.8Y-77.9
X105.8Y-78.7
X106.0Y-70.1
X106.29Y-80.9
X106.367Y-92.75
X106.367Y-93.9
X106.4Y-83.7
X106.5Y-79.4
X106.5Y-95.3
X106.5Y-98.2
X106.6Y-72.3
X106.6Y-73.9
X106.6Y-77.9
X106.6Y-78.7
X106.75Y-61.75
X106.96Y-70.1
X107.0Y-64.75
X107.2Y-82.3
X107.2Y-93.9
X107.25Y-92.75
X107.31Y-80.9
X107.4Y-72.3
X107.4Y-73.9
X107.4Y-77.1
X107.4Y-77.9
X107.4Y-78.7
X107.4Y-79.4
X107.8Y-72.7
X107.9Y-70.1
X108.09Y-80.9
X108.1Y-82.4
X108.2Y-72.3
X108.2Y-73.9
X108.2Y-77.9
X108.2Y-78.7
X108.2Y-84.5
X108.5Y-87.75
X108.6Y-79.8
X108.86Y-70.1
X109.0Y-73.1
X109.0Y-77.1
X109.11Y-80.9
X109.3Y-84.5
X109.3Y-96.7
X109.8Y-70.1
X109.8Y-73.1
X109.8Y-73.9
X109.8Y-77.1
X109.8Y-77.9
X109.8Y-78.7
X110.2Y-72.7
X110.2Y-78.3
X110.2Y-82.4
X110.25Y-61.25
X110.6Y-73.1
X110.6Y-73.9
X110.6Y-77.1
X110.76Y-70.1
X111.0Y-98.7
X111.3Y-80.9
X111.3Y-86.0
X111.4Y-72.3
X111.4Y-73.1
X111.4Y-78.7
X112.2Y-72.3
X112.2Y-73.9
X112.2Y-77.1
X112.2Y-77.9
X112.2Y-78.7
X112.5Y-61.0
X112.5Y-86.1
X113.0Y-72.3
X113.0Y-73.9
X113.0Y-78.7
X113.6Y-66.25
X113.7Y-86.1
X113.8Y-77.9
X113.8Y-78.7
X114.2Y-72.7
X114.3Y-99.0
X114.6Y-72.3
X114.6Y-73.9
X114.6Y-77.1
X114.6Y-77.9
X114.6Y-78.7
X115.0Y-63.0
X115.0Y-68.0
X115.0Y-72.7
X115.0Y-95.875
X115.0Y-97.0
X115.4Y-73.9
X115.4Y-77.9
X115.4Y-78.7
X115.7Y-66.25
X115.75Y-63.0
X115.75Y-68.0
X115.75Y-91.5
X115.75Y-97.0
X115.8Y-72.7
X115.8Y-76.7
X115.8Y-77.5
X116.2Y-72.3
X116.2Y-73.9
X116.2Y-77.9
X116.2Y-78.7
X116.25Y-63.0
X116.25Y-68.0
X116.25Y-91.5
X116.25Y-97.0
X116.6Y-72.7
X116.75Y-63.0
X116.75Y-68.0
X116.75Y-91.5
X116.75Y-97.0
X117.0Y-73.9
X117.0Y-77.1
X117.0Y-77.9
X117.0Y-78.7
X117.25Y-63.0
X117.25Y-68.0
X117.25Y-91.5
X117.4Y-72.7
X117.7Y-84.1
X117.75Y-63.0
X117.75Y-68.0
X117.75Y-91.5
X117.75Y-97.0
X117.8Y-95.7
X117.9Y-65.95
X118.25Y-63.0
X118.25Y-68.0
X118.25Y-91.5
X118.25Y-97.0
X118.75Y-63.0
X118.75Y-68.0
X118.75Y-98.05
X119.25Y-63.0
X119.25Y-68.0
X119.25Y-98.05
X119.75Y-63.0
X119.75Y-68.0
X119.75Y-91.5
X119.75Y-98.05
X120.25Y-63.0
X120.25Y-68.0
X120.25Y-98.05
X120.25Y-99.0
X120.75Y-63.0
X120.75Y-68.0
X120.75Y-98.05
X121.25Y-63.0
X121.25Y-68.0
X121.25Y-91.5
X121.25Y-98.05
X121.5Y-93.4
X121.5Y-94.1
X121.75Y-63.0
X121.75Y-68.0
X121.75Y-98.05
X122.1Y-77.125
X122.1Y-78.675
X122.15Y-93.4
X122.15Y-94.1
X122.25Y-63.0
X122.25Y-68.0
X122.25Y-98.05
X122.75Y-63.0
X122.75Y-68.0
X122.75Y-91.5
X122.75Y-97.7
X123.25Y-63.0
X123.25Y-68.0
X123.25Y-92.0
X123.25Y-98.05
X123.4Y-77.2
X123.5Y-80.8
X123.5Y-81.6
X123.5Y-93.4
X123.5Y-98.7
X123.5Y-99.3
X123.75Y-63.0
X123.75Y-68.0
X123.75Y-92.0
X123.75Y-98.05
X123.9Y-76.0
X123.9Y-76.8
X124.25Y-61.0
X124.25Y-63.0
X124.25Y-68.0
X124.25Y-91.5
X124.25Y-98.4
X124.4Y-72.8
X124.4Y-73.6
X124.75Y-63.0
X124.75Y-68.0
X124.9Y-73.2
X124.9Y-76.4
X124.9Y-77.2
X124.9Y-78.0
X124.9Y-78.8
X124.9Y-81.2
X124.9Y-85.2
X124.99Y-64.2
X125.0Y-94.3
X125.0Y-95.1
X125.3Y-77.6
X125.6Y-98.9
X125.7Y-74.8
X125.7Y-75.6
X125.7Y-78.8
X125.7Y-82.8
X125.7Y-86.8
X125.75Y-62.6
X125.75Y-91.5
X125.8Y-94.3
X125.8Y-95.1
X126.1Y-78.4
X126.1Y-80.8
X126.2Y-98.9
X126.5Y-72.4
X126.5Y-75.6
X126.5Y-76.4
X126.5Y-77.2
X126.5Y-78.0
X126.5Y-81.2
X126.5Y-82.0
X126.5Y-84.4
X126.8Y-98.9
X126.9Y-79.2
X126.9Y-80.8
X126.9Y-84.0
X127.25Y-91.5
X127.25Y-97.5
X127.3Y-78.0
X127.3Y-74.0
X127.3Y-74.8
X127.3Y-75.6
X127.3Y-76.4
X127.3Y-77.2
X127.3Y-78.8
X127.3Y-81.2
X127.3Y-82.0
X127.3Y-82.8
X127.3Y-86.0
X127.7Y-69.6
X127.7Y-80.8
X127.7Y-81.6
X127.7Y-83.2
X127.7Y-84.0
X127.7Y-87.2
X127.7Y-98.9
X127.75Y-68.0
X128.0Y-94.4
X128.1Y-72.4
X128.1Y-74.0
X128.1Y-74.8
X128.1Y-75.6
X128.1Y-76.4
X128.1Y-77.2
X128.1Y-78.0
X128.1Y-78.8
X128.1Y-79.6
X128.1Y-81.2
X128.25Y-62.6
X128.3Y-98.9
X128.5Y-80.8
X128.5Y-81.6
X128.5Y-82.4
X128.5Y-84.0
X128.75Y-62.6
X128.75Y-67.675
X128.75Y-91.5
X128.75Y-97.3
X128.9Y-73.2
X128.9Y-76.4
X128.9Y-77.2
X128.9Y-78.0
X128.9Y-78.8
X128.9Y-79.6
X128.9Y-85.2
X129.0Y-94.4
X129.2Y-98.9
X129.25Y-62.6
X129.25Y-91.5
X129.3Y-70.7
X129.3Y-85.6
X129.3Y-86.4
X129.7Y-74.0
X129.7Y-76.4
X129.7Y-77.2
X129.7Y-78.0
X129.7Y-78.8
X129.7Y-82.8
X129.7Y-83.6
X129.7Y-86.8
X129.75Y-62.6
X129.75Y-91.5
X129.8Y-69.5
X129.8Y-98.9
X129.9Y-95.5
X130.1Y-74.4
X130.1Y-80.0
X130.1Y-82.4
X130.1Y-85.6
X130.1Y-86.4
X130.25Y-63.0
X130.25Y-68.0
X130.25Y-91.5
X130.25Y-97.5
X130.5Y-72.4
X130.5Y-73.2
X130.5Y-74.0
X130.5Y-74.8
X130.5Y-76.4
X130.5Y-77.2
X130.5Y-78.8
X130.5Y-81.2
X130.5Y-82.0
X130.5Y-83.6
X130.5Y-84.4
X130.7Y-98.9
X130.75Y-62.6
X130.75Y-91.5
X130.8Y-65.25
X130.9Y-69.5
X130.9Y-74.4
X130.9Y-79.2
X130.9Y-80.0
X130.9Y-81.6
X131.25Y-62.6
X131.25Y-91.5
X131.3Y-76.4
X131.3Y-77.2
X131.3Y-86.0
X131.3Y-98.9
X131.45Y-93.92
X131.7Y-65.25
X131.7Y-73.6
X131.7Y-74.4
X131.7Y-78.4
X131.7Y-79.2
X131.7Y-80.0
X131.7Y-80.8
X131.7Y-82.4
X131.7Y-83.2
X131.7Y-84.0
X131.7Y-84.8
X131.7Y-87.2
X131.706Y-81.593
X131.75Y-62.6
X131.75Y-91.7
X131.75Y-97.5
X132.1Y-72.4
X132.1Y-74.0
X132.1Y-76.4
X132.2Y-69.9
X132.25Y-62.6
X132.25Y-91.7
X132.25Y-97.5
X132.4Y-94.0
X132.5Y-72.8
X132.5Y-73.6
X132.5Y-77.6
X132.5Y-78.4
X132.5Y-80.8
X132.5Y-81.6
X132.5Y-84.8
X132.5Y-98.9
X132.5Y-74.38
X132.6Y-65.25
X132.75Y-63.0
X132.75Y-68.0
X132.75Y-91.7
X132.75Y-97.5
X132.8Y-69.9
X132.9Y-72.4
X132.9Y-85.2
X133.0Y-94.0
X133.25Y-63.0
X133.25Y-68.0
X133.25Y-91.5
X133.25Y-97.5
X133.3Y-74.4
X133.3Y-75.2
X133.3Y-76.0
X133.3Y-79.2
X133.3Y-80.8
X133.3Y-81.6
X133.3Y-82.4
X133.3Y-84.0
X133.3Y-84.8
X133.6Y-94.0
X133.7Y-72.4
X133.7Y-73.2
X133.7Y-74.0
X133.7Y-76.4
X133.7Y-77.2
X133.7Y-78.0
X133.7Y-86.0
X133.75Y-91.7
X133.75Y-97.5
X133.8Y-69.9
X134.0Y-99.0
X134.1Y-74.4
X134.1Y-76.0
X134.1Y-79.2
X134.1Y-80.8
X134.1Y-81.6
X134.1Y-82.4
X134.1Y-83.2
X134.1Y-84.8
X134.1Y-85.6
X134.1Y-86.4
X134.1Y-87.2
X134.25Y-62.5
X134.25Y-68.2
X134.25Y-91.7
X134.25Y-97.5
X134.5Y-72.4
X134.5Y-74.0
X134.5Y-78.0
X134.5Y-84.4
X134.5Y-85.2
X134.7Y-65.2
X134.9Y-80.0
X134.9Y-76.0
X134.9Y-76.8
X134.9Y-80.8
X135.0Y-62.55
X135.0Y-68.6
X135.0Y-91.7
X135.0Y-97.6
X135.1Y-69.9
X135.3Y-72.4
X135.3Y-73.2
X135.3Y-74.0
X135.3Y-74.8
X135.3Y-75.6
X135.3Y-78.0
X135.3Y-84.4
X135.3Y-86.0
X135.3Y-86.8
X135.3Y-87.6
X135.6Y-65.43
X135.6Y-66.735
X135.7Y-76.0
X135.7Y-76.8
X135.7Y-83.2
X135.7Y-85.6
X135.7Y-86.4
X135.7Y-87.2
X135.7Y-96.2
X136.1Y-74.0
X136.1Y-74.8
X136.1Y-75.6
X136.1Y-79.6
X136.1Y-84.4
X136.1Y-85.2
X136.1Y-87.6
X136.1Y-98.8
X136.5Y-77.6
X136.5Y-80.8
X136.5Y-84.0
X136.5Y-84.8
X136.825Y-64.3
X136.9Y-73.2
X136.9Y-74.0
X136.9Y-74.8
X136.9Y-75.6
X136.9Y-86.0
X137.0Y-94.6
X137.12Y-65.8
X137.24Y-81.544
X137.3Y-79.2
X137.3Y-80.8
X137.3Y-82.4
X137.3Y-84.0
X137.3Y-84.8
X137.3Y-86.4
X137.3Y-95.45
X137.6Y-94.6
X137.7Y-74.8
X137.7Y-82.0
X137.7Y-85.2
X137.7Y-86.0
X138.08Y-65.8
X138.1Y-82.4
X138.1Y-84.0
X138.1Y-85.6
X138.1Y-86.4
X138.5Y-68.7
X138.5Y-70.25
X138.5Y-72.4
X138.5Y-74.0
X138.5Y-83.6
X138.5Y-84.4
X138.5Y-85.2
X138.8Y-68.0
X138.9Y-76.8
X138.9Y-78.4
X138.9Y-79.2
X138.9Y-80.8
X138.9Y-82.4
X138.9Y-87.2
X139.3Y-74.0
X139.3Y-78.0
X139.3Y-80.4
X139.3Y-82.8
X139.3Y-85.2
X139.3Y-86.0
X139.4Y-98.1
X139.7Y-80.0
X139.7Y-80.8
X139.7Y-81.6
X139.7Y-84.0
X139.7Y-87.2
X140.1Y-75.6
X140.1Y-79.6
X140.1Y-87.6
X140.5Y-80.8
X141.2Y-99.2
X142.1Y-97.2
X142.25Y-81.0
X142.5Y-87.0
X142.5Y-87.9
X142.52Y-88.9
X142.7Y-61.7
X143.1Y-70.78
X143.2Y-77.1
X143.2Y-85.05
X143.2Y-85.65
X143.25Y-65.25
X143.4Y-78.0
X143.5Y-92.1
X143.5Y-92.6
X143.5Y-93.1
X143.7Y-95.3
X143.8Y-76.6
X144.0Y-63.25
X144.1Y-99.2
X144.12Y-90.5
X144.4Y-77.1
X144.4Y-77.95
X144.6Y-68.5
X144.6Y-69.1
X145.25Y-65.5
X145.25Y-67.4
X145.6Y-70.1
X145.6Y-70.9
X145.6Y-87.1
X145.6Y-87.9
X145.8Y-89.8
X146.275Y-80.0
X146.275Y-81.25
X146.275Y-82.5
X146.4Y-70.1
X146.4Y-70.9
X146.4Y-87.1
X146.4Y-87.9
X146.5Y-93.7
X146.6Y-67.91
X146.85Y-90.2
X146.85Y-90.8
X147.0Y-82.2
X147.0Y-83.0
X147.0Y-83.8
X147.4Y-89.1
X147.75Y-66.0
X147.8Y-67.8
X148.3Y-87.75
X148.5Y-78.5
X148.5Y-85.6
X148.6Y-92.3
X148.7Y-73.25
X148.9Y-88.9
X149.2Y-94.9
X149.25Y-65.0
M30
